<svg width="742" height="283" viewBox="0 0 742 283" fill="none" xmlns="http://www.w3.org/2000/svg">
<g clip-path="url(#clip0_503_38)">
<rect width="283" height="283" rx="60" fill="#171717"/>
<g opacity="0.64" filter="url(#filter0_f_503_38)">
<path d="M83.514 278.142C74.3521 303.866 57.7903 318.313 37.7046 318.313C22.1999 318.313 5.99046 306.333 0 292.942L2.81904 288.009C7.75236 296.114 20.0856 302.809 27.1332 302.809C36.9999 302.809 44.0475 295.056 49.6856 278.847C71.1807 217.885 91.9711 139.305 98.314 91.0285L59.9046 76.9333L60.2569 72.3524C78.2283 73.0571 124.39 73.4095 146.942 73.4095C184.295 73.4095 211.428 72 228.694 72C239.266 72 244.199 76.2285 244.199 83.9809C244.199 100.895 222.704 136.485 205.437 162.562H198.037C208.609 138.952 213.895 113.933 213.19 98.0761C212.485 86.0952 207.552 80.8095 188.876 80.8095H133.904C129.323 113.228 119.457 156.571 107.123 201.323H133.904C151.523 201.323 168.438 193.571 185.352 177.362L188.171 178.771C183.942 195.685 177.599 215.419 171.257 231.276L168.79 231.628C163.152 217.18 145.18 208.019 127.209 208.019H105.362C98.6664 231.628 91.2664 255.237 83.514 278.142Z" fill="url(#paint0_linear_503_38)"/>
</g>
<g filter="url(#filter1_f_503_38)">
<path d="M83.514 278.142C74.3521 303.866 57.7903 318.313 37.7046 318.313C22.1999 318.313 5.99046 306.333 0 292.942L2.81904 288.009C7.75236 296.114 20.0856 302.809 27.1332 302.809C36.9999 302.809 44.0475 295.056 49.6856 278.847C71.1807 217.885 91.9711 139.305 98.314 91.0285L59.9046 76.9333L60.2569 72.3524C78.2283 73.0571 124.39 73.4095 146.942 73.4095C184.295 73.4095 211.428 72 228.694 72C239.266 72 244.199 76.2285 244.199 83.9809C244.199 100.895 222.704 136.485 205.437 162.562H198.037C208.609 138.952 213.895 113.933 213.19 98.0761C212.485 86.0952 207.552 80.8095 188.876 80.8095H133.904C129.323 113.228 119.457 156.571 107.123 201.323H133.904C151.523 201.323 168.438 193.571 185.352 177.362L188.171 178.771C183.942 195.685 177.599 215.419 171.257 231.276L168.79 231.628C163.152 217.18 145.18 208.019 127.209 208.019H105.362C98.6664 231.628 91.2664 255.237 83.514 278.142Z" fill="url(#paint1_linear_503_38)"/>
</g>
<g filter="url(#filter2_ddii_503_38)">
<path d="M83.514 278.142C74.3521 303.866 57.7903 318.313 37.7046 318.313C22.1999 318.313 5.99046 306.333 0 292.942L2.81904 288.009C7.75236 296.114 20.0856 302.809 27.1332 302.809C36.9999 302.809 44.0475 295.056 49.6856 278.847C71.1807 217.885 91.9711 139.305 98.314 91.0285L59.9046 76.9333L60.2569 72.3524C78.2283 73.0571 124.39 73.4095 146.942 73.4095C184.295 73.4095 211.428 72 228.694 72C239.266 72 244.199 76.2285 244.199 83.9809C244.199 100.895 222.704 136.485 205.437 162.562H198.037C208.609 138.952 213.895 113.933 213.19 98.0761C212.485 86.0952 207.552 80.8095 188.876 80.8095H133.904C129.323 113.228 119.457 156.571 107.123 201.323H133.904C151.523 201.323 168.438 193.571 185.352 177.362L188.171 178.771C183.942 195.685 177.599 215.419 171.257 231.276L168.79 231.628C163.152 217.18 145.18 208.019 127.209 208.019H105.362C98.6664 231.628 91.2664 255.237 83.514 278.142Z" fill="url(#paint2_linear_503_38)"/>
</g>
</g>
<path d="M338.442 134.839L352.325 137.616C352.617 139.467 352.374 141.172 351.594 142.731C349.841 142.633 347.649 142.536 345.018 142.438C342.388 142.341 339.757 142.244 337.127 142.146C334.496 142.049 332.256 142 330.405 142C327.677 142 324.754 142.049 321.637 142.146C318.519 142.341 315.596 142.536 312.868 142.731C312.576 140.88 312.674 139.175 313.161 137.616C314.817 137.226 316.424 136.885 317.983 136.593C319.542 136.301 321.247 135.667 323.098 134.693V47.0118L311.845 44.0891C311.553 42.2381 311.797 40.5331 312.576 38.9744C315.207 39.0718 318.129 39.2179 321.344 39.4128C324.657 39.6076 327.677 39.705 330.405 39.705H385.206C385.303 40.6793 385.352 41.6535 385.352 42.6278C385.352 43.5046 385.352 44.4301 385.352 45.4043C385.352 48.8142 385.157 52.1753 384.767 55.4877C384.475 58.8001 384.085 62.0638 383.598 65.2788C382.624 65.6685 381.796 65.8633 381.114 65.8633C380.432 65.8633 379.506 65.8146 378.337 65.7172L374.684 46.2811H338.442V84.2764H361.385L364.162 71.4165C365.039 71.1242 366.013 71.0268 367.085 71.1242C368.156 71.1242 369.131 71.4652 370.007 72.1472C369.813 74.2905 369.666 76.7261 369.569 79.4539C369.472 82.1818 369.423 84.9584 369.423 87.7837C369.423 90.9012 369.472 93.9701 369.569 96.9902C369.666 100.01 369.813 102.69 370.007 105.028C369.131 105.417 368.156 105.612 367.085 105.612C366.013 105.612 365.039 105.515 364.162 105.32L361.385 92.3139H338.442V134.839ZM460.566 134.985C462.222 135.96 463.927 136.593 465.681 136.885C467.434 137.178 469.139 137.519 470.795 137.908C471.088 139.662 470.844 141.367 470.065 143.023C468.506 143.315 466.655 143.559 464.512 143.754C462.466 143.948 460.322 144.046 458.082 144.046C454.964 144.046 452.236 143.754 449.898 143.169L447.414 132.355H446.683C441.714 136.837 437.087 139.954 432.8 141.708C428.611 143.461 424.032 144.338 419.063 144.338C412.049 144.338 406.983 142.39 403.865 138.493C400.845 134.596 399.335 129.237 399.335 122.418V77.7003L388.667 76.5312C388.375 74.5828 388.618 72.8778 389.398 71.4165C392.905 70.9294 396.169 70.3448 399.189 69.6628C402.306 68.9809 405.375 68.2502 408.395 67.4708C409.37 67.5682 410.295 67.7631 411.172 68.0554C412.049 68.2502 412.974 68.5912 413.949 69.0783V120.226C413.949 124.318 414.533 127.338 415.702 129.286C416.969 131.235 418.625 132.55 420.671 133.232C422.717 133.816 425.055 134.109 427.685 134.109C430.803 134.109 434.067 133.183 437.476 131.332C440.886 129.481 443.712 127.289 445.952 124.756V77.7003L435.284 76.5312C434.992 74.5828 435.236 72.8778 436.015 71.4165C439.522 70.9294 442.786 70.3448 445.806 69.6628C448.924 68.9809 451.993 68.2502 455.013 67.4708C455.987 67.5682 456.912 67.7631 457.789 68.0554C458.666 68.2502 459.592 68.5912 460.566 69.0783V134.985ZM502.922 144.338C499.805 144.338 496.979 143.754 494.446 142.585C491.913 141.415 489.916 139.418 488.455 136.593C487.091 133.67 486.409 129.676 486.409 124.61V77.9926H476.18C475.595 76.9209 475.254 75.8493 475.157 74.7776C475.157 73.6085 475.254 72.4881 475.449 71.4165C479.541 71.4165 482.609 70.8806 484.655 69.809C486.701 68.7373 488.26 66.8863 489.332 64.2558C490.501 61.6254 491.719 58.0694 492.985 53.5879H500.73V69.9551H516.075C517.438 72.7804 517.438 75.4596 516.075 77.9926H500.73V120.956C500.73 125.438 500.925 128.848 501.315 131.186C501.802 133.427 502.581 134.985 503.653 135.862C504.725 136.642 506.186 137.031 508.037 137.031C509.596 137.031 511.106 136.739 512.567 136.155C514.029 135.57 515.441 134.888 516.805 134.109C518.169 134.985 518.9 136.447 518.997 138.493C517.926 139.759 515.977 141.026 513.152 142.292C510.327 143.656 506.917 144.338 502.922 144.338ZM594 134.985C595.656 135.96 597.361 136.593 599.115 136.885C600.869 137.178 602.574 137.519 604.23 137.908C604.522 139.662 604.278 141.367 603.499 143.023C601.94 143.315 600.089 143.559 597.946 143.754C595.9 143.948 593.757 144.046 591.516 144.046C588.398 144.046 585.671 143.754 583.332 143.169L580.848 132.355H580.117C575.149 136.837 570.521 139.954 566.234 141.708C562.045 143.461 557.466 144.338 552.498 144.338C545.483 144.338 540.417 142.39 537.3 138.493C534.279 134.596 532.769 129.237 532.769 122.418V77.7003L522.102 76.5312C521.809 74.5828 522.053 72.8778 522.832 71.4165C526.339 70.9294 529.603 70.3448 532.623 69.6628C535.741 68.9809 538.81 68.2502 541.83 67.4708C542.804 67.5682 543.73 67.7631 544.606 68.0554C545.483 68.2502 546.409 68.5912 547.383 69.0783V120.226C547.383 124.318 547.968 127.338 549.137 129.286C550.403 131.235 552.059 132.55 554.105 133.232C556.151 133.816 558.489 134.109 561.12 134.109C564.237 134.109 567.501 133.183 570.911 131.332C574.321 129.481 577.146 127.289 579.387 124.756V77.7003L568.719 76.5312C568.427 74.5828 568.67 72.8778 569.449 71.4165C572.957 70.9294 576.22 70.3448 579.241 69.6628C582.358 68.9809 585.427 68.2502 588.447 67.4708C589.421 67.5682 590.347 67.7631 591.224 68.0554C592.1 68.2502 593.026 68.5912 594 69.0783V134.985ZM635.918 134.693L650.094 137.616C650.386 139.467 650.142 141.172 649.363 142.731C647.609 142.633 645.417 142.536 642.787 142.438C640.254 142.341 637.721 142.244 635.188 142.146C632.655 142.049 630.463 142 628.612 142C625.884 142 622.912 142.049 619.697 142.146C616.482 142.341 613.511 142.536 610.783 142.731C610.491 140.88 610.588 139.175 611.075 137.616C612.926 137.129 614.729 136.69 616.482 136.301C618.333 135.911 619.941 135.375 621.305 134.693V77.7003L609.176 76.5312C608.883 74.5828 609.127 72.8778 609.906 71.4165C613.413 70.9294 616.921 70.3448 620.428 69.6628C624.033 68.9809 627.345 68.2502 630.365 67.4708C631.339 67.5682 632.119 67.7631 632.703 68.0554C633.385 68.2502 634.213 68.5912 635.188 69.0783V82.3767L635.334 82.5228C638.354 78.0413 641.715 74.2418 645.417 71.1242C649.217 68.0066 653.26 66.4479 657.546 66.4479C659.203 66.4479 660.81 66.594 662.369 66.8863C664.025 67.0811 665.633 67.6657 667.191 68.6399C667.386 72.6343 667.191 76.4338 666.607 80.0385C666.12 83.6432 665.34 87.1504 664.269 90.5602C663.587 90.6577 662.515 90.7064 661.054 90.7064C659.592 90.609 658.472 90.3654 657.693 89.9757L655.647 75.3621C652.237 75.3621 648.778 76.6286 645.271 79.1617C641.861 81.5973 638.744 86.1275 635.918 92.7523V134.693ZM689.81 105.466C689.81 115.306 691.759 122.954 695.656 128.409C699.65 133.768 705.057 136.447 711.877 136.447C714.897 136.447 717.43 136.301 719.476 136.008C721.522 135.619 723.519 134.937 725.468 133.963C727.513 132.988 729.803 131.624 732.336 129.871C733.895 130.553 734.771 131.722 734.966 133.378C731.946 136.885 728.342 139.613 724.152 141.562C719.963 143.51 715.725 144.484 711.439 144.484C704.034 144.484 697.556 142.926 692.002 139.808C686.449 136.69 682.114 132.209 678.996 126.363C675.879 120.518 674.32 113.552 674.32 105.466C674.32 97.1851 675.928 90.1706 679.143 84.4226C682.455 78.5771 686.839 74.1443 692.295 71.1242C697.848 68.0066 703.986 66.4479 710.708 66.4479C719.379 66.4479 725.76 69.3706 729.852 75.216C734.041 80.964 736.135 88.4169 736.135 97.5748C736.135 98.2567 736.135 98.89 736.135 99.4745C736.135 100.059 736.087 100.692 735.989 101.374L733.943 102.982L689.81 102.543V105.466ZM710.562 72.7317C707.736 72.7317 704.911 73.6085 702.086 75.3621C699.358 77.1158 696.922 79.7462 694.779 83.2535C692.636 86.7607 691.174 91.1935 690.395 96.5518L722.253 94.7982C722.253 87.2966 721.424 81.7434 719.768 78.1387C718.209 74.534 715.141 72.7317 710.562 72.7317ZM331.135 255C328.407 255 325.046 255.049 321.052 255.146C317.155 255.341 313.843 255.536 311.115 255.731C310.822 253.88 310.92 252.175 311.407 250.616C313.355 250.324 315.255 249.934 317.106 249.447C319.055 248.96 321.052 248.375 323.098 247.693V160.012L311.845 157.089C311.553 155.238 311.797 153.533 312.576 151.974C315.207 152.072 318.129 152.218 321.344 152.413C324.657 152.608 327.677 152.705 330.405 152.705L349.987 152.559C361.873 152.461 370.884 154.41 377.022 158.404C383.257 162.301 386.375 168.195 386.375 176.087C386.375 180.373 385.352 184.222 383.306 187.631C381.26 191.041 378.532 193.818 375.122 195.961C371.712 198.105 367.913 199.517 363.724 200.199V200.491C368.887 201.076 373.661 202.294 378.045 204.145C382.429 205.996 385.936 208.772 388.567 212.475C391.295 216.079 392.658 220.999 392.658 227.234C392.658 232.787 391.538 237.415 389.297 241.117C387.154 244.722 384.231 247.596 380.529 249.739C376.827 251.882 372.638 253.441 367.962 254.415C363.285 255.292 358.463 255.731 353.494 255.731L331.135 255ZM346.918 197.715C353.056 197.715 357.829 196.887 361.239 195.231C364.747 193.477 367.182 191.041 368.546 187.924C370.007 184.709 370.738 180.958 370.738 176.671C370.738 173.261 370.056 170.29 368.692 167.757C367.426 165.127 364.99 163.081 361.385 161.619C357.781 160.158 352.569 159.427 345.749 159.427C344.677 159.427 343.508 159.476 342.242 159.573C341.073 159.573 339.806 159.622 338.442 159.72V197.715H346.918ZM351.74 249.155C360.996 249.155 367.377 247.206 370.884 243.309C374.489 239.412 376.291 234.005 376.291 227.088C376.291 219.294 374.294 213.692 370.3 210.282C366.305 206.775 359.145 205.022 348.818 205.022H338.442V248.424L351.74 249.155ZM404.165 218.466C404.165 210.867 405.627 204.096 408.55 198.153C411.57 192.21 415.856 187.534 421.409 184.124C426.963 180.714 433.49 179.009 440.992 179.009C448.591 179.009 455.118 180.714 460.574 184.124C466.127 187.534 470.365 192.21 473.288 198.153C476.308 204.096 477.818 210.867 477.818 218.466C477.818 226.26 476.308 233.128 473.288 239.071C470.365 245.014 466.127 249.642 460.574 252.954C455.118 256.267 448.591 257.923 440.992 257.923C433.49 257.923 426.963 256.267 421.409 252.954C415.856 249.642 411.57 245.014 408.55 239.071C405.627 233.128 404.165 226.26 404.165 218.466ZM462.035 220.512C462.035 213.985 461.305 208.09 459.843 202.83C458.382 197.471 456.092 193.233 452.975 190.116C449.857 186.901 445.765 185.293 440.699 185.293C435.536 185.293 431.395 186.852 428.278 189.97C425.258 193.087 423.114 197.228 421.848 202.391C420.581 207.555 419.948 213.254 419.948 219.489C419.948 225.14 420.679 230.449 422.14 235.418C423.602 240.289 425.891 244.235 429.009 247.255C432.224 250.178 436.315 251.639 441.284 251.639C446.545 251.639 450.685 250.178 453.705 247.255C456.726 244.332 458.869 240.484 460.135 235.71C461.402 230.936 462.035 225.87 462.035 220.512ZM512.769 257.338C509.652 257.338 506.827 256.754 504.294 255.585C501.761 254.415 499.763 252.418 498.302 249.593C496.938 246.67 496.256 242.676 496.256 237.61V190.993H486.027C485.442 189.921 485.101 188.849 485.004 187.778C485.004 186.609 485.101 185.488 485.296 184.416C489.388 184.416 492.457 183.881 494.502 182.809C496.548 181.737 498.107 179.886 499.179 177.256C500.348 174.625 501.566 171.069 502.832 166.588H510.577V182.955H525.922C527.286 185.78 527.286 188.46 525.922 190.993H510.577V233.956C510.577 238.438 510.772 241.848 511.162 244.186C511.649 246.427 512.428 247.985 513.5 248.862C514.572 249.642 516.033 250.031 517.884 250.031C519.443 250.031 520.953 249.739 522.414 249.155C523.876 248.57 525.288 247.888 526.652 247.109C528.016 247.985 528.747 249.447 528.844 251.493C527.773 252.759 525.824 254.026 522.999 255.292C520.174 256.656 516.764 257.338 512.769 257.338ZM546.27 248.57C548.316 249.544 550.362 250.226 552.408 250.616C554.551 251.006 556.938 251.2 559.568 251.2C563.563 251.2 567.119 250.324 570.236 248.57C573.354 246.816 574.912 243.991 574.912 240.094C574.912 238.048 574.328 236.149 573.159 234.395C572.087 232.641 570.139 230.839 567.313 228.988C564.586 227.137 560.64 225.042 555.476 222.704C549.826 220.074 545.442 217.053 542.324 213.644C539.207 210.136 537.648 205.314 537.648 199.176C537.648 194.208 538.866 190.311 541.301 187.485C543.834 184.563 547.049 182.468 550.946 181.201C554.941 179.935 559.13 179.302 563.514 179.302C567.313 179.302 571.064 179.691 574.766 180.471C578.566 181.153 581.927 182.127 584.85 183.394C584.85 183.881 584.85 184.416 584.85 185.001C584.947 185.586 584.996 186.121 584.996 186.609C584.996 192.551 584.07 198.153 582.219 203.414C581.83 203.512 581.44 203.609 581.05 203.706C580.758 203.706 580.417 203.706 580.027 203.706C578.566 203.706 577.104 203.414 575.643 202.83L573.305 187.047C572.038 186.657 570.577 186.365 568.921 186.17C567.265 185.878 565.608 185.732 563.952 185.732C561.712 185.732 559.471 186.073 557.23 186.755C555.087 187.339 553.284 188.411 551.823 189.97C550.459 191.431 549.777 193.526 549.777 196.253C549.777 198.105 550.167 199.858 550.946 201.514C551.823 203.171 553.479 204.924 555.915 206.775C558.448 208.529 562.199 210.623 567.167 213.059C574.961 216.761 580.417 220.366 583.534 223.873C586.749 227.283 588.357 231.57 588.357 236.733C588.357 241.702 587.042 245.745 584.411 248.862C581.781 251.98 578.322 254.269 574.036 255.731C569.846 257.192 565.365 257.923 560.591 257.923C556.012 257.923 551.726 257.533 547.731 256.754C543.834 256.072 539.889 254.513 535.894 252.077V249.593C535.894 246.963 536.04 244.283 536.333 241.556C536.722 238.73 537.453 235.71 538.525 232.495C539.109 232.398 539.596 232.349 539.986 232.349C541.74 232.349 543.347 232.593 544.808 233.08L546.27 248.57Z" fill="#171717"/>
<defs>
<filter id="filter0_f_503_38" x="-15.8" y="56.2" width="275.799" height="277.913" filterUnits="userSpaceOnUse" color-interpolation-filters="sRGB">
<feFlood flood-opacity="0" result="BackgroundImageFix"/>
<feBlend mode="normal" in="SourceGraphic" in2="BackgroundImageFix" result="shape"/>
<feGaussianBlur stdDeviation="7.9" result="effect1_foregroundBlur_503_38"/>
</filter>
<filter id="filter1_f_503_38" x="-69.9" y="2.1" width="383.999" height="386.113" filterUnits="userSpaceOnUse" color-interpolation-filters="sRGB">
<feFlood flood-opacity="0" result="BackgroundImageFix"/>
<feBlend mode="normal" in="SourceGraphic" in2="BackgroundImageFix" result="shape"/>
<feGaussianBlur stdDeviation="34.95" result="effect1_foregroundBlur_503_38"/>
</filter>
<filter id="filter2_ddii_503_38" x="-27.5737" y="47.9501" width="299.347" height="301.461" filterUnits="userSpaceOnUse" color-interpolation-filters="sRGB">
<feFlood flood-opacity="0" result="BackgroundImageFix"/>
<feColorMatrix in="SourceAlpha" type="matrix" values="0 0 0 0 0 0 0 0 0 0 0 0 0 0 0 0 0 0 127 0" result="hardAlpha"/>
<feOffset dy="3.5238"/>
<feGaussianBlur stdDeviation="13.7869"/>
<feComposite in2="hardAlpha" operator="out"/>
<feColorMatrix type="matrix" values="0 0 0 0 0 0 0 0 0 0 0 0 0 0 0 0 0 0 0.25 0"/>
<feBlend mode="normal" in2="BackgroundImageFix" result="effect1_dropShadow_503_38"/>
<feColorMatrix in="SourceAlpha" type="matrix" values="0 0 0 0 0 0 0 0 0 0 0 0 0 0 0 0 0 0 127 0" result="hardAlpha"/>
<feOffset dy="3.5238"/>
<feGaussianBlur stdDeviation="1.7619"/>
<feComposite in2="hardAlpha" operator="out"/>
<feColorMatrix type="matrix" values="0 0 0 0 0 0 0 0 0 0 0 0 0 0 0 0 0 0 0.25 0"/>
<feBlend mode="normal" in2="effect1_dropShadow_503_38" result="effect2_dropShadow_503_38"/>
<feBlend mode="normal" in="SourceGraphic" in2="effect2_dropShadow_503_38" result="shape"/>
<feColorMatrix in="SourceAlpha" type="matrix" values="0 0 0 0 0 0 0 0 0 0 0 0 0 0 0 0 0 0 127 0" result="hardAlpha"/>
<feOffset dy="-5.2857"/>
<feGaussianBlur stdDeviation="1.7619"/>
<feComposite in2="hardAlpha" operator="arithmetic" k2="-1" k3="1"/>
<feColorMatrix type="matrix" values="0 0 0 0 1 0 0 0 0 1 0 0 0 0 1 0 0 0 0.25 0"/>
<feBlend mode="normal" in2="shape" result="effect3_innerShadow_503_38"/>
<feColorMatrix in="SourceAlpha" type="matrix" values="0 0 0 0 0 0 0 0 0 0 0 0 0 0 0 0 0 0 127 0" result="hardAlpha"/>
<feOffset dx="-2.64285" dy="-4.40475"/>
<feGaussianBlur stdDeviation="3.25951"/>
<feComposite in2="hardAlpha" operator="arithmetic" k2="-1" k3="1"/>
<feColorMatrix type="matrix" values="0 0 0 0 0 0 0 0 0 0 0 0 0 0 0 0 0 0 0.12 0"/>
<feBlend mode="normal" in2="effect3_innerShadow_503_38" result="effect4_innerShadow_503_38"/>
</filter>
<linearGradient id="paint0_linear_503_38" x1="93.9966" y1="-19.971" x2="238.913" y2="387.468" gradientUnits="userSpaceOnUse">
<stop stop-color="#1EFF00"/>
<stop offset="0.5" stop-color="#009DFF"/>
<stop offset="0.75" stop-color="#804FE1"/>
<stop offset="1" stop-color="#FF00C4"/>
</linearGradient>
<linearGradient id="paint1_linear_503_38" x1="93.9966" y1="-19.971" x2="238.913" y2="387.468" gradientUnits="userSpaceOnUse">
<stop stop-color="#1EFF00"/>
<stop offset="0.5" stop-color="#009DFF"/>
<stop offset="0.75" stop-color="#804FE1"/>
<stop offset="1" stop-color="#FF00C4"/>
</linearGradient>
<linearGradient id="paint2_linear_503_38" x1="93.9966" y1="-19.971" x2="238.913" y2="387.468" gradientUnits="userSpaceOnUse">
<stop stop-color="#1EFF00"/>
<stop offset="0.5" stop-color="#009DFF"/>
<stop offset="0.75" stop-color="#804FE1"/>
<stop offset="1" stop-color="#FF00C4"/>
</linearGradient>
<clipPath id="clip0_503_38">
<rect width="283" height="283" rx="60" fill="white"/>
</clipPath>
</defs>
</svg>
