<svg width="283" height="283" viewBox="0 0 283 283" fill="none" xmlns="http://www.w3.org/2000/svg">
<g clip-path="url(#clip0_506_63)">
<rect width="283" height="283" rx="60" fill="white"/>
<g opacity="0.64" filter="url(#filter0_f_506_63)">
<path d="M83.514 278.142C74.3521 303.866 57.7903 318.313 37.7046 318.313C22.1999 318.313 5.99046 306.333 0 292.942L2.81904 288.009C7.75236 296.114 20.0856 302.809 27.1332 302.809C36.9999 302.809 44.0475 295.056 49.6856 278.847C71.1807 217.885 91.9711 139.305 98.314 91.0285L59.9046 76.9333L60.2569 72.3524C78.2283 73.0571 124.39 73.4095 146.942 73.4095C184.295 73.4095 211.428 72 228.694 72C239.266 72 244.199 76.2285 244.199 83.9809C244.199 100.895 222.704 136.485 205.437 162.562H198.037C208.609 138.952 213.895 113.933 213.19 98.0761C212.485 86.0952 207.552 80.8095 188.876 80.8095H133.904C129.323 113.228 119.457 156.571 107.123 201.323H133.904C151.523 201.323 168.438 193.571 185.352 177.362L188.171 178.771C183.942 195.685 177.599 215.419 171.257 231.276L168.79 231.628C163.152 217.18 145.18 208.019 127.209 208.019H105.362C98.6664 231.628 91.2664 255.237 83.514 278.142Z" fill="url(#paint0_linear_506_63)"/>
</g>
<g filter="url(#filter1_f_506_63)">
<path d="M83.514 278.142C74.3521 303.866 57.7903 318.313 37.7046 318.313C22.1999 318.313 5.99046 306.333 0 292.942L2.81904 288.009C7.75236 296.114 20.0856 302.809 27.1332 302.809C36.9999 302.809 44.0475 295.056 49.6856 278.847C71.1807 217.885 91.9711 139.305 98.314 91.0285L59.9046 76.9333L60.2569 72.3524C78.2283 73.0571 124.39 73.4095 146.942 73.4095C184.295 73.4095 211.428 72 228.694 72C239.266 72 244.199 76.2285 244.199 83.9809C244.199 100.895 222.704 136.485 205.437 162.562H198.037C208.609 138.952 213.895 113.933 213.19 98.0761C212.485 86.0952 207.552 80.8095 188.876 80.8095H133.904C129.323 113.228 119.457 156.571 107.123 201.323H133.904C151.523 201.323 168.438 193.571 185.352 177.362L188.171 178.771C183.942 195.685 177.599 215.419 171.257 231.276L168.79 231.628C163.152 217.18 145.18 208.019 127.209 208.019H105.362C98.6664 231.628 91.2664 255.237 83.514 278.142Z" fill="url(#paint1_linear_506_63)"/>
</g>
<g filter="url(#filter2_ddii_506_63)">
<path d="M83.514 278.142C74.3521 303.866 57.7903 318.313 37.7046 318.313C22.1999 318.313 5.99046 306.333 0 292.942L2.81904 288.009C7.75236 296.114 20.0856 302.809 27.1332 302.809C36.9999 302.809 44.0475 295.056 49.6856 278.847C71.1807 217.885 91.9711 139.305 98.314 91.0285L59.9046 76.9333L60.2569 72.3524C78.2283 73.0571 124.39 73.4095 146.942 73.4095C184.295 73.4095 211.428 72 228.694 72C239.266 72 244.199 76.2285 244.199 83.9809C244.199 100.895 222.704 136.485 205.437 162.562H198.037C208.609 138.952 213.895 113.933 213.19 98.0761C212.485 86.0952 207.552 80.8095 188.876 80.8095H133.904C129.323 113.228 119.457 156.571 107.123 201.323H133.904C151.523 201.323 168.438 193.571 185.352 177.362L188.171 178.771C183.942 195.685 177.599 215.419 171.257 231.276L168.79 231.628C163.152 217.18 145.18 208.019 127.209 208.019H105.362C98.6664 231.628 91.2664 255.237 83.514 278.142Z" fill="url(#paint2_linear_506_63)"/>
</g>
</g>
<defs>
<filter id="filter0_f_506_63" x="-15.8" y="56.2" width="275.799" height="277.913" filterUnits="userSpaceOnUse" color-interpolation-filters="sRGB">
<feFlood flood-opacity="0" result="BackgroundImageFix"/>
<feBlend mode="normal" in="SourceGraphic" in2="BackgroundImageFix" result="shape"/>
<feGaussianBlur stdDeviation="7.9" result="effect1_foregroundBlur_506_63"/>
</filter>
<filter id="filter1_f_506_63" x="-69.9" y="2.1" width="383.999" height="386.113" filterUnits="userSpaceOnUse" color-interpolation-filters="sRGB">
<feFlood flood-opacity="0" result="BackgroundImageFix"/>
<feBlend mode="normal" in="SourceGraphic" in2="BackgroundImageFix" result="shape"/>
<feGaussianBlur stdDeviation="34.95" result="effect1_foregroundBlur_506_63"/>
</filter>
<filter id="filter2_ddii_506_63" x="-27.5737" y="47.9501" width="299.347" height="301.461" filterUnits="userSpaceOnUse" color-interpolation-filters="sRGB">
<feFlood flood-opacity="0" result="BackgroundImageFix"/>
<feColorMatrix in="SourceAlpha" type="matrix" values="0 0 0 0 0 0 0 0 0 0 0 0 0 0 0 0 0 0 127 0" result="hardAlpha"/>
<feOffset dy="3.5238"/>
<feGaussianBlur stdDeviation="13.7869"/>
<feComposite in2="hardAlpha" operator="out"/>
<feColorMatrix type="matrix" values="0 0 0 0 0 0 0 0 0 0 0 0 0 0 0 0 0 0 0.25 0"/>
<feBlend mode="normal" in2="BackgroundImageFix" result="effect1_dropShadow_506_63"/>
<feColorMatrix in="SourceAlpha" type="matrix" values="0 0 0 0 0 0 0 0 0 0 0 0 0 0 0 0 0 0 127 0" result="hardAlpha"/>
<feOffset dy="3.5238"/>
<feGaussianBlur stdDeviation="1.7619"/>
<feComposite in2="hardAlpha" operator="out"/>
<feColorMatrix type="matrix" values="0 0 0 0 0 0 0 0 0 0 0 0 0 0 0 0 0 0 0.25 0"/>
<feBlend mode="normal" in2="effect1_dropShadow_506_63" result="effect2_dropShadow_506_63"/>
<feBlend mode="normal" in="SourceGraphic" in2="effect2_dropShadow_506_63" result="shape"/>
<feColorMatrix in="SourceAlpha" type="matrix" values="0 0 0 0 0 0 0 0 0 0 0 0 0 0 0 0 0 0 127 0" result="hardAlpha"/>
<feOffset dy="-5.2857"/>
<feGaussianBlur stdDeviation="1.7619"/>
<feComposite in2="hardAlpha" operator="arithmetic" k2="-1" k3="1"/>
<feColorMatrix type="matrix" values="0 0 0 0 1 0 0 0 0 1 0 0 0 0 1 0 0 0 0.25 0"/>
<feBlend mode="normal" in2="shape" result="effect3_innerShadow_506_63"/>
<feColorMatrix in="SourceAlpha" type="matrix" values="0 0 0 0 0 0 0 0 0 0 0 0 0 0 0 0 0 0 127 0" result="hardAlpha"/>
<feOffset dx="-2.64285" dy="-4.40475"/>
<feGaussianBlur stdDeviation="3.25951"/>
<feComposite in2="hardAlpha" operator="arithmetic" k2="-1" k3="1"/>
<feColorMatrix type="matrix" values="0 0 0 0 0 0 0 0 0 0 0 0 0 0 0 0 0 0 0.12 0"/>
<feBlend mode="normal" in2="effect3_innerShadow_506_63" result="effect4_innerShadow_506_63"/>
</filter>
<linearGradient id="paint0_linear_506_63" x1="93.9966" y1="-19.971" x2="238.913" y2="387.468" gradientUnits="userSpaceOnUse">
<stop offset="0.135" stop-color="white"/>
<stop offset="0.405" stop-color="#1B23F7"/>
<stop offset="1" stop-color="#E071EF"/>
</linearGradient>
<linearGradient id="paint1_linear_506_63" x1="93.9966" y1="-19.971" x2="238.913" y2="387.468" gradientUnits="userSpaceOnUse">
<stop offset="0.135" stop-color="white"/>
<stop offset="0.405" stop-color="#1B23F7"/>
<stop offset="1" stop-color="#E071EF"/>
</linearGradient>
<linearGradient id="paint2_linear_506_63" x1="93.9966" y1="-19.971" x2="238.913" y2="387.468" gradientUnits="userSpaceOnUse">
<stop offset="0.135" stop-color="white"/>
<stop offset="0.405" stop-color="#1B23F7"/>
<stop offset="1" stop-color="#E071EF"/>
</linearGradient>
<clipPath id="clip0_506_63">
<rect width="283" height="283" rx="60" fill="white"/>
</clipPath>
</defs>
</svg>
